<?xml version="1.0" encoding="utf-8"?>
<!-- Generator: Adobe Illustrator 28.0.0, SVG Export Plug-In . SVG Version: 6.00 Build 0)  -->
<svg version="1.1" id="Слой_1" xmlns="http://www.w3.org/2000/svg" xmlns:xlink="http://www.w3.org/1999/xlink" x="0px" y="0px"
	 viewBox="0 0 991.3485718 1000" style="enable-background:new 0 0 991.3485718 1000;" xml:space="preserve">
<style type="text/css">
	.st0{fill:#C1F11D;}
	.st1{fill:#141414;}
</style>
<path class="st0" d="M0,499.9990234C0,361.282959,0,291.4075012,19.0643883,236.0244446
	C54.1017761,134.5751953,132.935379,54.8654366,233.9247437,19.1510754C289.5723267,0,358.100708,0,495.6731873,0
	c137.5712585,0,206.6177063,0,261.7513123,19.1510754c100.4707031,35.1969223,179.819519,114.9066772,214.8601074,216.8733673
	c19.0639648,55.9004822,19.0639648,125.2585144,19.0639648,263.9745789c0,138.7166138,0,208.5944824-19.0639648,263.97229
	c-35.0405884,101.4533081-113.8718872,181.1625366-214.8601074,216.8775024C701.7733765,1000,633.2444458,1000,495.6731873,1000
	c-137.5724792,0-206.6165466,0-261.7484436-19.1511841C133.4504852,945.6511841,54.1017761,865.9420776,19.0643883,763.9713135
	C0,708.5935059,0,639.2330933,0,499.9990234z"/>
<path class="st1" d="M274.3908081,754.5061035h120.8266907V397.8274841H274.3908081V754.5061035z M546.0784302,227.5911102
	v-0.1032562h-95.270752v119.0985718h92.4361572c84.5005493,0,142.9306641,60.4041138,142.9306641,143.5817871
	c0,83.1755371-58.4301147,145.2914429-142.9306641,145.2914429h-92.4361572v119.098938h95.270752
	c149.7299805,0,262.5728149-115.116394,262.5728149-264.9077759
	C808.6512451,339.8580017,695.8084106,227.5911102,546.0784302,227.5911102z M274.3908081,346.5871277h120.8266907V227.487854
	H274.3908081V346.5871277z"/>
</svg>
